<svg id="Layer_1" data-name="Layer 1" xmlns="http://www.w3.org/2000/svg" viewBox="0 0 628.33 52.05"><title>button</title><rect width="628.33" height="52.05" rx="15.86" style="fill:#ee2846"/><g style="isolation:isolate"><path d="M75.9,22.62A7.24,7.24,0,0,1,75.54,25a5.89,5.89,0,0,1-.93,1.78A5.65,5.65,0,0,1,73.32,28a7.26,7.26,0,0,1-1.46.8l3.59,7.63H69.92l-3.3-7H55.81v7H50.62V15.85H69.15a8.66,8.66,0,0,1,2,.29,6.73,6.73,0,0,1,2.22,1.05,6.17,6.17,0,0,1,1.8,2.06A6.84,6.84,0,0,1,75.9,22.62Zm-5.19,0a2.44,2.44,0,0,0-.26-1.19,2.24,2.24,0,0,0-.65-.71,2.65,2.65,0,0,0-.78-.34,3.79,3.79,0,0,0-.64-.08H55.81V25H68.38a2.27,2.27,0,0,0,.56-.1,2.63,2.63,0,0,0,1.48-1.09A2.18,2.18,0,0,0,70.71,22.62Z" style="fill:#231f20"/><path d="M87.65,36.47V15.85h24.83V20.3H92.83V24h17.3v4H92.83v4h20.42v4.45Z" style="fill:#231f20"/><path d="M148.31,38.41l-2.95-2.94a16,16,0,0,1-3.51,1.24,19,19,0,0,1-4.21.44,17.71,17.71,0,0,1-5.8-.89,13.55,13.55,0,0,1-4.35-2.38,10.34,10.34,0,0,1-2.72-3.49,10,10,0,0,1,0-8.46,10.34,10.34,0,0,1,2.72-3.49,13.56,13.56,0,0,1,4.35-2.39,19.59,19.59,0,0,1,11.61,0,13.62,13.62,0,0,1,4.34,2.39,10.37,10.37,0,0,1,2.73,3.49,10,10,0,0,1,.41,7.45,10.2,10.2,0,0,1-1.56,2.88l2.53,2.53ZM146,26.16a6.22,6.22,0,0,0-.52-2.52,5.78,5.78,0,0,0-1.56-2.11,7.74,7.74,0,0,0-2.62-1.44,13,13,0,0,0-7.34,0,7.74,7.74,0,0,0-2.62,1.44,5.78,5.78,0,0,0-1.56,2.11,6.48,6.48,0,0,0,0,5,5.74,5.74,0,0,0,1.56,2.1A7.76,7.76,0,0,0,134,32.23a13,13,0,0,0,7.34,0,7.76,7.76,0,0,0,2.62-1.45,5.74,5.74,0,0,0,1.56-2.1A6.22,6.22,0,0,0,146,26.16Z" style="fill:#231f20"/><path d="M187.31,26.16a10.8,10.8,0,0,1-.85,4.23A10.47,10.47,0,0,1,184,33.88a11.81,11.81,0,0,1-3.86,2.38,15,15,0,0,1-10.19,0,12,12,0,0,1-3.88-2.38,10.36,10.36,0,0,1-2.46-3.49,10.62,10.62,0,0,1-.85-4.23V15.85H168V26.16a7.57,7.57,0,0,0,.42,2.52,5.93,5.93,0,0,0,1.3,2.1,6.12,6.12,0,0,0,2.21,1.45,9.69,9.69,0,0,0,6.32,0,6.21,6.21,0,0,0,2.19-1.45,5.93,5.93,0,0,0,1.3-2.1,7.57,7.57,0,0,0,.42-2.52V15.85h5.19Z" style="fill:#231f20"/><path d="M199.21,36.47V15.85H224V20.3H204.4V24h17.29v4H204.4v4h20.41v4.45Z" style="fill:#231f20"/><path d="M260.4,29.81a5.47,5.47,0,0,1-.83,2.89A7.18,7.18,0,0,1,257,35.07a14.43,14.43,0,0,1-4.27,1.59,28.22,28.22,0,0,1-6.07.58,23.3,23.3,0,0,1-3.68-.3,36.06,36.06,0,0,1-3.57-.73,18.44,18.44,0,0,1-3.77-1.45l1.8-4.12a18,18,0,0,0,3.25,1.28,27.68,27.68,0,0,0,3,.66,23,23,0,0,0,3,.27,20.31,20.31,0,0,0,6.58-.8c1.45-.53,2.17-1.23,2.17-2.09a1.3,1.3,0,0,0-.68-1.21,4.91,4.91,0,0,0-2.09-.44l-1.22-.07-2.2-.11L246.37,28c-1.06,0-2.16-.08-3.3-.14a15.58,15.58,0,0,1-3.13-.47,8.06,8.06,0,0,1-2.48-1.11,5.29,5.29,0,0,1-1.63-1.77,4.92,4.92,0,0,1-.59-2.46,4.37,4.37,0,0,1,.93-2.66,7.82,7.82,0,0,1,2.65-2.18A15.71,15.71,0,0,1,243,15.76a26.39,26.39,0,0,1,5.5-.53,25.42,25.42,0,0,1,3.65.27c1.06.15,2.24.38,3.55.67a19.47,19.47,0,0,1,3.81,1.3L258,21.53c-.61-.25-1.29-.5-2.06-.73s-1.57-.44-2.4-.62-1.68-.31-2.53-.41a21.33,21.33,0,0,0-2.46-.15,30.59,30.59,0,0,0-3.29.16,15.41,15.41,0,0,0-2.64.49,5.51,5.51,0,0,0-1.75.79,1.34,1.34,0,0,0-.63,1.06,1.23,1.23,0,0,0,.65,1.15,4.16,4.16,0,0,0,1.91.44l4,.18,6.07.27a14,14,0,0,1,3.16.47,7.31,7.31,0,0,1,2.39,1.09,4.87,4.87,0,0,1,1.52,1.74A5.08,5.08,0,0,1,260.4,29.81Z" style="fill:#231f20"/><path d="M285.11,20.3V36.47H280V20.3h-9.28V15.85h23.71V20.3Z" style="fill:#231f20"/><path d="M354.93,31.05a10.46,10.46,0,0,1-2,2.43,12.7,12.7,0,0,1-2.83,1.93,15.37,15.37,0,0,1-3.63,1.28,21.08,21.08,0,0,1-10.44-.43,14.09,14.09,0,0,1-4.51-2.38,10.5,10.5,0,0,1-2.81-3.49,9.71,9.71,0,0,1,0-8.46,10.5,10.5,0,0,1,2.81-3.49,14.1,14.1,0,0,1,4.51-2.39,21.27,21.27,0,0,1,10.31-.45,15.27,15.27,0,0,1,3.55,1.21,13.38,13.38,0,0,1,2.8,1.82,10.45,10.45,0,0,1,2,2.29l-4.65,2.35a5.83,5.83,0,0,0-1.19-1.38,7.25,7.25,0,0,0-1.8-1.12,10.89,10.89,0,0,0-2.36-.75,13.19,13.19,0,0,0-2.81-.28,12.9,12.9,0,0,0-3.82.51,8.15,8.15,0,0,0-2.71,1.4,6,6,0,0,0-1.62,2.05,5.81,5.81,0,0,0,0,4.89,6,6,0,0,0,1.62,2.05,8.16,8.16,0,0,0,2.71,1.41,12.54,12.54,0,0,0,3.82.53,12.94,12.94,0,0,0,2.94-.31,10.12,10.12,0,0,0,2.42-.84,7.71,7.71,0,0,0,1.83-1.23,5.27,5.27,0,0,0,1.15-1.51Z" style="fill:#231f20"/><path d="M389,36.47l-2.38-4.12H372.07l-2.38,4.12h-5.51L376,15.85h6.63l11.84,20.62Zm-9.63-16.76-4.71,8.19h9.42Z" style="fill:#231f20"/><path d="M418.47,20.3V36.47h-5.15V20.3H404V15.85h23.71V20.3Z" style="fill:#231f20"/><path d="M462.1,36.47l-2.39-4.12H445.19l-2.39,4.12h-5.51l11.85-20.62h6.63l11.84,20.62Zm-9.63-16.76-4.72,8.19h9.43Z" style="fill:#231f20"/><path d="M478,36.47V15.85h5.18V32h18.29v4.45Z" style="fill:#231f20"/><path d="M539.72,26.16a9.76,9.76,0,0,1-.94,4.23,10.47,10.47,0,0,1-2.72,3.49,13.55,13.55,0,0,1-4.35,2.38,19.38,19.38,0,0,1-11.61,0,13.6,13.6,0,0,1-4.34-2.38A10.37,10.37,0,0,1,513,30.39a10,10,0,0,1,0-8.46,10.37,10.37,0,0,1,2.73-3.49,13.62,13.62,0,0,1,4.34-2.39,19.59,19.59,0,0,1,11.61,0,13.56,13.56,0,0,1,4.35,2.39,10.47,10.47,0,0,1,2.72,3.49A9.76,9.76,0,0,1,539.72,26.16Zm-5.45,0a6.38,6.38,0,0,0-.51-2.52,6,6,0,0,0-1.56-2.11,7.74,7.74,0,0,0-2.62-1.44,13,13,0,0,0-7.34,0,7.65,7.65,0,0,0-2.62,1.44,5.78,5.78,0,0,0-1.56,2.11,6.37,6.37,0,0,0,0,5,5.74,5.74,0,0,0,1.56,2.1,7.66,7.66,0,0,0,2.62,1.45,13,13,0,0,0,7.34,0,7.76,7.76,0,0,0,2.62-1.45,6,6,0,0,0,1.56-2.1A6.38,6.38,0,0,0,534.27,26.16Z" style="fill:#231f20"/><path d="M578.7,26.16a9.64,9.64,0,0,1-1,4.23,10.41,10.41,0,0,1-2.82,3.49,14.09,14.09,0,0,1-4.51,2.38,21,21,0,0,1-12.1,0,14.09,14.09,0,0,1-4.51-2.38A10.26,10.26,0,0,1,551,30.39a9.62,9.62,0,0,1,0-8.46,10.26,10.26,0,0,1,2.81-3.49,14.1,14.1,0,0,1,4.51-2.39,19.41,19.41,0,0,1,6.05-.88,18.83,18.83,0,0,1,4.18.43A16.62,16.62,0,0,1,572,16.76a12.72,12.72,0,0,1,2.79,1.75,11.18,11.18,0,0,1,2,2.23l-4.56,2.33a7.07,7.07,0,0,0-2.92-2.46,11.17,11.17,0,0,0-5-1,13.3,13.3,0,0,0-3.93.53,8.7,8.7,0,0,0-2.84,1.43,6,6,0,0,0-1.73,2.08,5.77,5.77,0,0,0,0,5,6,6,0,0,0,1.73,2.08,8.7,8.7,0,0,0,2.84,1.43,13.3,13.3,0,0,0,3.93.53,11.59,11.59,0,0,0,5.47-1.14,6.72,6.72,0,0,0,3-2.87H562.32v-4h16.26q.06.35.09.72T578.7,26.16Z" style="fill:#231f20"/></g></svg>